<?xml version="1.0" standalone="no"?>
<!DOCTYPE svg PUBLIC "-//W3C//DTD SVG 20010904//EN"
 "http://www.w3.org/TR/2001/REC-SVG-20010904/DTD/svg10.dtd">
<svg version="1.0" xmlns="http://www.w3.org/2000/svg"
 width="500.000000pt" height="500.000000pt" viewBox="0 0 500.000000 500.000000"
 preserveAspectRatio="xMidYMid meet">

<g transform="translate(0.000000,500.000000) scale(0.100000,-0.100000)"
fill="#000000" stroke="none">
<path d="M2410 3670 l0 -50 61 0 c33 0 105 -9 158 -20 709 -144 1097 -906 799
-1569 -80 -179 -262 -387 -429 -490 -151 -93 -338 -155 -506 -168 l-83 -6 0
-48 0 -49 48 0 c136 0 336 52 483 125 110 55 148 79 243 155 280 225 446 579
446 949 0 397 -188 762 -517 1003 -170 124 -435 218 -620 218 l-83 0 0 -50z"/>
<path d="M2400 3473 l0 -40 98 -11 c322 -37 582 -219 727 -507 79 -157 98
-236 98 -415 0 -179 -18 -256 -98 -415 -94 -188 -231 -323 -420 -415 -138 -68
-194 -81 -365 -87 -167 -6 -251 7 -378 58 -322 128 -556 440 -579 772 l-6 87
-38 0 -39 0 0 -74 c0 -141 72 -352 168 -492 122 -179 311 -321 520 -393 222
-76 507 -62 724 37 199 90 375 254 478 445 184 340 154 765 -76 1077 -167 227
-446 383 -728 406 l-86 7 0 -40z"/>
<path d="M1230 2852 c0 -4 19 -66 43 -137 40 -118 46 -130 69 -133 24 -3 27 2
52 85 42 139 38 138 75 19 29 -95 35 -106 56 -106 21 0 27 12 66 128 23 70 44
133 47 140 2 7 -5 12 -21 12 -19 0 -26 -7 -32 -27 -3 -16 -18 -66 -32 -113
-22 -73 -27 -82 -34 -60 -4 14 -20 64 -34 113 -23 76 -29 87 -49 87 -20 0 -26
-13 -57 -112 l-34 -113 -34 113 c-31 101 -36 112 -58 112 -12 0 -23 -4 -23 -8z"/>
<path d="M1829 2837 c-121 -81 -65 -257 82 -257 151 0 202 194 68 262 -48 25
-109 23 -150 -5z m147 -51 c24 -24 34 -43 34 -66 0 -41 -56 -100 -94 -100
-105 0 -145 136 -55 186 42 23 78 17 115 -20z"/>
<path d="M2210 2721 l0 -141 25 0 c23 0 25 4 25 40 l0 40 43 0 c39 0 44 -3 65
-40 17 -30 29 -40 47 -40 31 0 31 1 -2 51 -24 36 -25 43 -12 53 44 32 51 101
15 143 -23 26 -30 28 -115 31 l-91 4 0 -141z m148 92 c33 -8 47 -49 27 -79
-13 -20 -24 -24 -70 -24 l-55 0 0 55 0 55 38 0 c20 0 47 -3 60 -7z"/>
<path d="M2610 2720 l0 -140 25 0 c22 0 25 4 25 38 0 28 7 45 24 61 l25 23 43
-61 c35 -49 48 -61 71 -61 33 0 34 -2 -35 93 l-49 69 53 56 c51 55 52 57 28
61 -20 3 -38 -11 -92 -70 l-68 -73 0 72 c0 70 -1 72 -25 72 l-25 0 0 -140z"/>
<path d="M1707 2373 c-4 -3 -7 -35 -7 -70 0 -49 3 -63 15 -63 9 0 15 9 15 23
l1 22 18 -22 c11 -13 27 -23 36 -23 16 0 16 2 2 23 -13 20 -13 26 -1 42 18 24
18 40 -2 59 -15 16 -65 22 -77 9z m61 -40 c-2 -10 -10 -18 -18 -18 -8 0 -16 8
-18 18 -2 12 3 17 18 17 15 0 20 -5 18 -17z"/>
<path d="M1880 2310 l0 -70 40 0 c29 0 40 4 40 15 0 9 -9 15 -25 15 -16 0 -25
6 -25 15 0 9 9 15 25 15 14 0 25 5 25 10 0 6 -11 10 -25 10 -16 0 -25 6 -25
15 0 9 9 15 25 15 16 0 25 6 25 15 0 11 -11 15 -40 15 l-40 0 0 -70z"/>
<path d="M2072 2360 c-45 -42 -15 -120 47 -120 20 0 36 9 50 26 29 37 26 44
-14 44 -19 0 -35 -4 -35 -10 0 -5 8 -10 17 -10 12 0 14 -3 6 -11 -6 -6 -21 -9
-34 -7 -19 2 -24 9 -24 32 0 39 25 54 59 36 35 -18 47 -3 17 21 -30 25 -62 24
-89 -1z"/>
<path d="M2270 2310 c0 -56 3 -70 15 -70 12 0 15 14 15 70 0 56 -3 70 -15 70
-12 0 -15 -14 -15 -70z"/>
<path d="M2402 2368 c-25 -25 -14 -56 23 -68 19 -6 35 -18 35 -26 0 -19 -19
-18 -42 3 -25 22 -47 3 -23 -21 33 -33 115 -7 101 31 -3 8 -6 16 -6 18 0 2
-16 9 -35 15 -19 6 -35 16 -35 22 0 6 13 8 35 4 38 -8 48 7 16 24 -26 13 -54
13 -69 -2z"/>
<path d="M2570 2365 c0 -8 9 -15 20 -15 18 0 20 -7 20 -55 0 -42 3 -55 15 -55
12 0 15 13 15 55 0 42 3 55 15 55 8 0 15 7 15 15 0 11 -12 15 -50 15 -38 0
-50 -4 -50 -15z"/>
<path d="M2750 2310 l0 -70 40 0 c29 0 40 4 40 15 0 9 -10 15 -26 15 -31 0
-28 23 4 28 30 5 28 22 -3 22 -16 0 -25 6 -25 15 0 9 9 15 25 15 16 0 25 6 25
15 0 11 -11 15 -40 15 l-40 0 0 -70z"/>
<path d="M2920 2310 c0 -56 3 -70 15 -70 9 0 15 9 15 22 l0 22 16 -22 c8 -12
25 -22 36 -22 l21 0 -22 23 c-19 21 -20 25 -6 37 37 31 7 80 -49 80 -25 0 -26
-2 -26 -70z m58 23 c-5 -25 -28 -28 -28 -4 0 12 6 21 16 21 9 0 14 -7 12 -17z"/>
</g>
</svg>
