<?xml version="1.0" standalone="no"?>
<!DOCTYPE svg PUBLIC "-//W3C//DTD SVG 20010904//EN"
 "http://www.w3.org/TR/2001/REC-SVG-20010904/DTD/svg10.dtd">
<svg version="1.0" xmlns="http://www.w3.org/2000/svg"
 width="500.000000pt" height="500.000000pt" viewBox="0 0 500.000000 500.000000"
 preserveAspectRatio="xMidYMid meet">

<g transform="translate(0.000000,500.000000) scale(0.100000,-0.100000)"
fill="#000000" stroke="none">
<path d="M2410 3670 l0 -50 61 0 c33 0 105 -9 158 -20 709 -144 1097 -906 799
-1569 -80 -179 -262 -387 -429 -490 -151 -93 -338 -155 -506 -168 l-83 -6 0
-48 0 -49 48 0 c136 0 336 52 483 125 110 55 148 79 243 155 280 225 446 579
446 949 0 397 -188 762 -517 1003 -170 124 -435 218 -620 218 l-83 0 0 -50z"/>
<path d="M2400 3473 l0 -40 98 -11 c322 -37 582 -219 727 -507 79 -157 98
-236 98 -415 0 -179 -18 -256 -98 -415 -94 -188 -231 -323 -420 -415 -138 -68
-194 -81 -365 -87 -167 -6 -251 7 -378 58 -322 128 -556 440 -579 772 l-6 87
-38 0 -39 0 0 -74 c0 -141 72 -352 168 -492 122 -179 311 -321 520 -393 222
-76 507 -62 724 37 199 90 375 254 478 445 184 340 154 765 -76 1077 -167 227
-446 383 -728 406 l-86 7 0 -40z"/>
<path d="M1230 2852 c0 -4 19 -66 43 -137 40 -118 46 -130 69 -133 24 -3 27 2
52 85 42 139 38 138 75 19 29 -95 35 -106 56 -106 21 0 27 12 66 128 23 70 44
133 47 140 2 7 -5 12 -21 12 -19 0 -26 -7 -32 -27 -3 -16 -18 -66 -32 -113
-22 -73 -27 -82 -34 -60 -4 14 -20 64 -34 113 -23 76 -29 87 -49 87 -20 0 -26
-13 -57 -112 l-34 -113 -34 113 c-31 101 -36 112 -58 112 -12 0 -23 -4 -23 -8z"/>
<path d="M1829 2837 c-121 -81 -65 -257 82 -257 151 0 202 194 68 262 -48 25
-109 23 -150 -5z m147 -51 c24 -24 34 -43 34 -66 0 -41 -56 -100 -94 -100
-105 0 -145 136 -55 186 42 23 78 17 115 -20z"/>
<path d="M2210 2721 l0 -141 25 0 c23 0 25 4 25 40 l0 40 43 0 c39 0 44 -3 65
-40 17 -30 29 -40 47 -40 31 0 31 1 -2 51 -24 36 -25 43 -12 53 44 32 51 101
15 143 -23 26 -30 28 -115 31 l-91 4 0 -141z m148 92 c33 -8 47 -49 27 -79
-13 -20 -24 -24 -70 -24 l-55 0 0 55 0 55 38 0 c20 0 47 -3 60 -7z"/>
<path d="M2610 2720 l0 -140 25 0 c22 0 25 4 25 38 0 28 7 45 24 61 l25 23 43
-61 c35 -49 48 -61 71 -61 33 0 34 -2 -35 93 l-49 69 53 56 c51 55 52 57 28
61 -20 3 -38 -11 -92 -70 l-68 -73 0 72 c0 70 -1 72 -25 72 l-25 0 0 -140z"/>
<path d="M1711 2308 c1 -40 4 -61 6 -45 5 34 26 35 47 2 9 -14 21 -25 27 -25
6 0 1 12 -10 26 l-21 27 20 14 c38 27 12 73 -41 73 l-29 0 1 -72z m67 30 c-2
-17 -11 -24 -30 -26 -24 -3 -28 0 -28 22 0 22 4 26 31 26 26 0 30 -3 27 -22z"/>
<path d="M1890 2310 l0 -70 43 2 42 1 -37 4 c-33 4 -38 8 -38 29 0 20 5 24 30
24 17 0 30 5 30 10 0 6 -13 10 -30 10 -23 0 -30 4 -30 20 0 15 7 20 29 20 17
0 33 5 36 10 4 6 -10 10 -34 10 l-41 0 0 -70z"/>
<path d="M2082 2357 c-28 -30 -28 -68 1 -95 30 -28 68 -28 95 1 30 32 28 37
-15 36 -31 -2 -33 -3 -10 -6 32 -5 35 -18 7 -33 -27 -14 -57 -4 -76 25 -18 28
-7 57 27 76 17 9 27 7 50 -10 38 -28 48 -26 19 4 -30 32 -70 32 -98 2z"/>
<path d="M2290 2310 c0 -40 4 -70 10 -70 6 0 10 30 10 70 0 40 -4 70 -10 70
-6 0 -10 -30 -10 -70z"/>
<path d="M2410 2365 c-18 -21 -6 -42 36 -62 39 -19 45 -32 20 -48 -11 -7 -22
-6 -36 3 -27 16 -35 15 -20 -3 16 -19 64 -19 80 0 19 23 7 47 -30 60 -37 12
-52 41 -27 51 9 3 25 1 36 -6 12 -6 21 -7 21 -1 0 23 -62 28 -80 6z"/>
<path d="M2593 2373 c14 -4 17 -17 19 -71 l1 -67 6 64 c5 52 10 66 26 72 14 5
6 7 -25 7 -25 0 -37 -2 -27 -5z"/>
<path d="M2740 2310 l0 -70 43 2 c36 1 38 2 10 5 -27 4 -33 9 -33 29 0 20 5
24 30 24 17 0 30 5 30 10 0 6 -13 10 -30 10 -23 0 -30 4 -30 20 0 16 7 20 30
20 17 0 30 5 30 10 0 6 -18 10 -40 10 l-40 0 0 -70z"/>
<path d="M2920 2310 c0 -40 4 -70 10 -70 6 0 10 11 10 25 0 14 4 25 10 25 5 0
17 -11 26 -25 9 -14 20 -25 25 -25 5 0 2 11 -7 25 -15 22 -15 26 0 40 35 35 9
75 -48 75 -25 0 -26 -2 -26 -70z m73 38 c7 -23 -4 -38 -29 -38 -19 0 -24 5
-24 25 0 20 5 25 24 25 13 0 26 -6 29 -12z"/>
</g>
</svg>
